<svg xmlns="http://www.w3.org/2000/svg" viewBox="0 0 47 47"><defs><style>.cls-1{stroke:#000;}</style></defs><title>Ресурс 9</title><g id="Слой_2" data-name="Слой 2"><g id="Слой_2-2" data-name="Слой 2"><path class="cls-1" d="M45.19,15.83a22.79,22.79,0,0,0-4.55-7.67,23.51,23.51,0,0,0-1.8-1.8,23,23,0,0,0-23-4.55A22.63,22.63,0,0,0,8.17,6.36a20.38,20.38,0,0,0-1.8,1.8,22.95,22.95,0,0,0-4.55,23,22.63,22.63,0,0,0,4.55,7.67,19.11,19.11,0,0,0,1.8,1.8,22.82,22.82,0,0,0,7.67,4.56V36.78a15.3,15.3,0,0,1-5.62-5.62H23.5V46.5a22.87,22.87,0,0,0,15.34-5.87,20.38,20.38,0,0,0,1.8-1.8,22.63,22.63,0,0,0,4.55-7.67,23.08,23.08,0,0,0,0-15.33ZM23.5,23.5H8.17A15.33,15.33,0,0,1,23.5,8.16Zm13.29,7.66a15.45,15.45,0,0,1-5.62,5.62V10.21a15.34,15.34,0,0,1,5.62,21Z"/></g></g></svg>